<svg xmlns="http://www.w3.org/2000/svg" width="13.177" height="24.213" viewBox="0 0 13.177 24.213">
  <g id="noun-arrow-2335663" transform="translate(13.177 24.213) rotate(180)">
    <path id="Caminho_675" data-name="Caminho 675" d="M193.23,10.681,203.49.421a1.485,1.485,0,0,1,2.073,0,1.485,1.485,0,0,1,0,2.073l-9.241,9.241,9.241,9.241a1.466,1.466,0,1,1-2.073,2.073l-10.26-10.3a1.485,1.485,0,0,1,0-2.073Z" transform="translate(-192.809 0)" fill="#fff" fill-rule="evenodd"/>
    <g id="Grupo_2056" data-name="Grupo 2056" transform="translate(13.059 23.869)">
      <path id="Caminho_676" data-name="Caminho 676" d="M.2-2.986l.019.007.021,0a.072.072,0,0,0,.051-.018.065.065,0,0,0,.018-.048.064.064,0,0,0-.018-.048.071.071,0,0,0-.051-.018l-.021,0A.066.066,0,0,0,.2-3.1v.026a.073.073,0,0,1,.018-.009.058.058,0,0,1,.019,0,.037.037,0,0,1,.028.011.046.046,0,0,1,.01.031.045.045,0,0,1-.01.031A.036.036,0,0,1,.24-3L.221-3,.2-3.012Z" transform="translate(-0.203 3.109)" fill="#fff"/>
    </g>
    <g id="Grupo_2057" data-name="Grupo 2057" transform="translate(12.962 23.901)">
      <path id="Caminho_677" data-name="Caminho 677" d="M.359-2.316l.008,0H.375a.022.022,0,0,1,.018.008A.03.03,0,0,1,.4-2.29v.045H.43v-.1H.4v.016a.035.035,0,0,0-.014-.014.037.037,0,0,0-.018,0H.359Z" transform="translate(-0.359 2.344)" fill="#fff"/>
    </g>
    <g id="Grupo_2058" data-name="Grupo 2058" transform="translate(12.85 23.901)">
      <path id="Caminho_678" data-name="Caminho 678" d="M.187-2.294v.009H.259a.025.025,0,0,1-.008.016.029.029,0,0,1-.019.005l-.02,0L.192-2.275v.024l.022.006.022,0a.057.057,0,0,0,.04-.013A.049.049,0,0,0,.29-2.293.048.048,0,0,0,.277-2.33a.054.054,0,0,0-.039-.014A.049.049,0,0,0,.2-2.33a.049.049,0,0,0-.014.036ZM.219-2.3a.02.02,0,0,1,.005-.014.018.018,0,0,1,.013-.005.022.022,0,0,1,.015.005A.022.022,0,0,1,.259-2.3Z" transform="translate(-0.187 2.344)" fill="#fff"/>
    </g>
    <g id="Grupo_2059" data-name="Grupo 2059" transform="translate(12.737 23.901)">
      <path id="Caminho_679" data-name="Caminho 679" d="M.235-2.289a.027.027,0,0,1,.014,0,.011.011,0,0,1,0,.01.011.011,0,0,1,0,.009.015.015,0,0,1-.01,0,.02.02,0,0,1-.014-.006.022.022,0,0,1-.007-.016v0ZM.188-2.3v.055H.218V-2.26a.04.04,0,0,0,.014.013.038.038,0,0,0,.018,0,.034.034,0,0,0,.024-.009.031.031,0,0,0,.009-.023A.028.028,0,0,0,.273-2.3a.067.067,0,0,0-.037-.008H.218v0A.012.012,0,0,1,.224-2.32a.04.04,0,0,1,.018,0l.018,0,.016.006v-.024l-.02,0H.237a.055.055,0,0,0-.037.01A.041.041,0,0,0,.188-2.3Z" transform="translate(-0.188 2.344)" fill="#fff"/>
    </g>
    <g id="Grupo_2060" data-name="Grupo 2060" transform="translate(12.643 23.876)">
      <path id="Caminho_680" data-name="Caminho 680" d="M.094-2.938v.027H.062v.022H.094v.041a.012.012,0,0,1,0,.009.019.019,0,0,1-.01,0H.065v.022H.091a.038.038,0,0,0,.026-.007.038.038,0,0,0,.007-.026v-.041H.14v-.022H.125v-.027Z" transform="translate(-0.062 2.938)" fill="#fff"/>
    </g>
    <g id="Grupo_2061" data-name="Grupo 2061" transform="translate(12.529 23.901)">
      <path id="Caminho_681" data-name="Caminho 681" d="M.187-2.294v.009H.259a.025.025,0,0,1-.008.016.029.029,0,0,1-.019.005l-.02,0L.192-2.275v.024l.022.006.022,0a.057.057,0,0,0,.04-.013A.049.049,0,0,0,.29-2.293.048.048,0,0,0,.277-2.33a.054.054,0,0,0-.039-.014A.049.049,0,0,0,.2-2.33a.049.049,0,0,0-.014.036ZM.219-2.3a.02.02,0,0,1,.005-.014.018.018,0,0,1,.013-.005.022.022,0,0,1,.015.005A.022.022,0,0,1,.259-2.3Z" transform="translate(-0.187 2.344)" fill="#fff"/>
    </g>
    <g id="Grupo_2062" data-name="Grupo 2062" transform="translate(12.409 23.866)">
      <path id="Caminho_682" data-name="Caminho 682" d="M.218-3.136v-.052H.187v.134H.218v-.014a.037.037,0,0,0,.014.012.039.039,0,0,0,.018,0,.037.037,0,0,0,.029-.014A.057.057,0,0,0,.29-3.1a.055.055,0,0,0-.011-.036A.037.037,0,0,0,.25-3.152a.039.039,0,0,0-.018,0,.038.038,0,0,0-.014.012Zm.02.062a.017.017,0,0,1-.015-.007A.036.036,0,0,1,.218-3.1a.036.036,0,0,1,.005-.021A.018.018,0,0,1,.239-3.13a.018.018,0,0,1,.015.007.039.039,0,0,1,0,.021.039.039,0,0,1,0,.021A.017.017,0,0,1,.239-3.074Z" transform="translate(-0.187 3.188)" fill="#fff"/>
    </g>
    <g id="Grupo_2063" data-name="Grupo 2063" transform="translate(12.215 23.866)">
      <path id="Caminho_683" data-name="Caminho 683" d="M.411-3.074A.016.016,0,0,1,.4-3.081.036.036,0,0,1,.391-3.1.036.036,0,0,1,.4-3.123.016.016,0,0,1,.411-3.13a.018.018,0,0,1,.016.007A.035.035,0,0,1,.432-3.1a.034.034,0,0,1-.005.021A.018.018,0,0,1,.411-3.074Zm.021-.062a.043.043,0,0,0-.014-.012.039.039,0,0,0-.018,0,.035.035,0,0,0-.029.014A.054.054,0,0,0,.359-3.1a.056.056,0,0,0,.012.037A.036.036,0,0,0,.4-3.051a.039.039,0,0,0,.018,0,.041.041,0,0,0,.014-.012v.014h.03v-.134H.432Z" transform="translate(-0.359 3.188)" fill="#fff"/>
    </g>
    <g id="Grupo_2064" data-name="Grupo 2064" transform="translate(12.096 23.903)">
      <path id="Caminho_684" data-name="Caminho 684" d="M.156-2.3H.125L.1-2.231.078-2.3H.047l.041.105A.05.05,0,0,0,.1-2.169a.032.032,0,0,0,.021.007H.141v-.02H.131a.019.019,0,0,1-.011,0,.016.016,0,0,1-.006-.009v0Z" transform="translate(-0.047 2.297)" fill="#fff"/>
    </g>
    <g id="Grupo_2065" data-name="Grupo 2065" transform="translate(11.901 23.869)">
      <path id="Caminho_685" data-name="Caminho 685" d="M.2-2.989a.111.111,0,0,0,.026.01l.028,0a.072.072,0,0,0,.051-.018.065.065,0,0,0,.018-.048.063.063,0,0,0-.019-.049.074.074,0,0,0-.052-.018l-.024,0A.081.081,0,0,0,.208-3.1v.026a.086.086,0,0,1,.022-.009.073.073,0,0,1,.021,0,.042.042,0,0,1,.031.011.043.043,0,0,1,.01.031.044.044,0,0,1-.01.031A.039.039,0,0,1,.252-3H.242L.235-3v-.025h.02V-3.05H.2Z" transform="translate(-0.203 3.109)" fill="#fff"/>
    </g>
    <g id="Grupo_2066" data-name="Grupo 2066" transform="translate(11.776 23.866)">
      <path id="Caminho_686" data-name="Caminho 686" d="M.359-3.112v.058H.39V-3.1c0-.008,0-.014,0-.017a.021.021,0,0,1,0-.007l.005,0,.007,0a.019.019,0,0,1,.016.008.034.034,0,0,1,.005.02v.047h.03v-.134H.425v.052A.05.05,0,0,0,.41-3.148a.037.037,0,0,0-.017,0,.031.031,0,0,0-.026.01.045.045,0,0,0-.009.029Z" transform="translate(-0.359 3.188)" fill="#fff"/>
    </g>
    <g id="Grupo_2067" data-name="Grupo 2067" transform="translate(11.717 23.866)">
      <path id="Caminho_687" data-name="Caminho 687" d="M.39-3.15H.359v.1H.39Zm0-.037H.359v.026H.39Z" transform="translate(-0.359 3.188)" fill="#fff"/>
    </g>
    <g id="Grupo_2068" data-name="Grupo 2068" transform="translate(11.591 23.903)">
      <path id="Caminho_688" data-name="Caminho 688" d="M.156-2.3H.125L.1-2.231.078-2.3H.047l.041.105A.05.05,0,0,0,.1-2.169a.032.032,0,0,0,.021.007H.141v-.02H.131a.019.019,0,0,1-.011,0,.016.016,0,0,1-.006-.009v0Z" transform="translate(-0.047 2.297)" fill="#fff"/>
    </g>
    <g id="Grupo_2069" data-name="Grupo 2069" transform="translate(11.483 23.901)">
      <path id="Caminho_689" data-name="Caminho 689" d="M.235-2.289a.027.027,0,0,1,.014,0,.011.011,0,0,1,0,.01.011.011,0,0,1,0,.009.015.015,0,0,1-.01,0,.02.02,0,0,1-.014-.006.022.022,0,0,1-.007-.016v0ZM.188-2.3v.055H.218V-2.26a.04.04,0,0,0,.014.013.038.038,0,0,0,.018,0,.034.034,0,0,0,.024-.009.031.031,0,0,0,.009-.023A.028.028,0,0,0,.273-2.3a.067.067,0,0,0-.037-.008H.218v0A.012.012,0,0,1,.224-2.32a.04.04,0,0,1,.018,0l.018,0,.016.006v-.024l-.02,0H.237a.055.055,0,0,0-.037.01A.041.041,0,0,0,.188-2.3Z" transform="translate(-0.188 2.344)" fill="#fff"/>
    </g>
    <g id="Grupo_2070" data-name="Grupo 2070" transform="translate(11.389 23.876)">
      <path id="Caminho_690" data-name="Caminho 690" d="M.094-2.938v.027H.062v.022H.094v.041a.012.012,0,0,1,0,.009.019.019,0,0,1-.01,0H.065v.022H.091a.038.038,0,0,0,.026-.007.038.038,0,0,0,.007-.026v-.041H.14v-.022H.125v-.027Z" transform="translate(-0.062 2.938)" fill="#fff"/>
    </g>
    <g id="Grupo_2071" data-name="Grupo 2071" transform="translate(11.289 23.901)">
      <path id="Caminho_691" data-name="Caminho 691" d="M.225-2.339v.024l.019-.007.017,0a.029.029,0,0,1,.014,0,.007.007,0,0,1,0,.007.006.006,0,0,1,0,.005l-.012,0H.259a.07.07,0,0,0-.031.01.026.026,0,0,0-.009.022.026.026,0,0,0,.012.023.059.059,0,0,0,.033.008l.02,0,.02,0v-.024l-.019.007-.02,0a.027.027,0,0,1-.013,0,.008.008,0,0,1,0-.007.007.007,0,0,1,0-.007l.012,0H.269A.059.059,0,0,0,.3-2.293a.027.027,0,0,0,.008-.021A.026.026,0,0,0,.3-2.337a.057.057,0,0,0-.032-.007H.246l-.02,0Z" transform="translate(-0.219 2.344)" fill="#fff"/>
    </g>
    <g id="Grupo_2072" data-name="Grupo 2072" transform="translate(11.061 23.871)">
      <path id="Caminho_692" data-name="Caminho 692" d="M.533-3.047H.491l-.029.068L.433-3.047H.391v.128H.422v-.094l.029.069H.472L.5-3.013v.094H.533Z" transform="translate(-0.391 3.047)" fill="#fff"/>
    </g>
    <g id="Grupo_2073" data-name="Grupo 2073" transform="translate(10.934 23.903)">
      <path id="Caminho_693" data-name="Caminho 693" d="M.424-2.238V-2.3H.394v.045a.141.141,0,0,1,0,.017.018.018,0,0,1,0,.007l0,0H.379a.017.017,0,0,1-.015-.007.034.034,0,0,1-.005-.02V-2.3H.328v.1H.359v-.014A.042.042,0,0,0,.373-2.2a.038.038,0,0,0,.017,0,.033.033,0,0,0,.026-.01.046.046,0,0,0,.009-.03Z" transform="translate(-0.328 2.297)" fill="#fff"/>
    </g>
    <g id="Grupo_2074" data-name="Grupo 2074" transform="translate(10.874 23.866)">
      <path id="Caminho_694" data-name="Caminho 694" d="M-.11-3.15h-.03v.094a.042.042,0,0,0,.009.029.034.034,0,0,0,.027.01H-.09v-.02H-.095a.016.016,0,0,1-.012,0,.027.027,0,0,1,0-.016Zm0-.037h-.03v.026h.03Z" transform="translate(0.141 3.188)" fill="#fff"/>
    </g>
    <g id="Grupo_2075" data-name="Grupo 2075" transform="translate(10.779 23.876)">
      <path id="Caminho_695" data-name="Caminho 695" d="M.094-2.938v.027H.062v.022H.094v.041a.012.012,0,0,1,0,.009.019.019,0,0,1-.01,0H.065v.022H.091a.038.038,0,0,0,.026-.007.038.038,0,0,0,.007-.026v-.041H.14v-.022H.125v-.027Z" transform="translate(-0.062 2.938)" fill="#fff"/>
    </g>
    <g id="Grupo_2076" data-name="Grupo 2076" transform="translate(10.671 23.901)">
      <path id="Caminho_696" data-name="Caminho 696" d="M.235-2.289a.027.027,0,0,1,.014,0,.011.011,0,0,1,0,.01.011.011,0,0,1,0,.009.015.015,0,0,1-.01,0,.02.02,0,0,1-.014-.006.022.022,0,0,1-.007-.016v0ZM.188-2.3v.055H.218V-2.26a.04.04,0,0,0,.014.013.038.038,0,0,0,.018,0,.034.034,0,0,0,.024-.009.031.031,0,0,0,.009-.023A.028.028,0,0,0,.273-2.3a.067.067,0,0,0-.037-.008H.218v0A.012.012,0,0,1,.224-2.32a.04.04,0,0,1,.018,0l.018,0,.016.006v-.024l-.02,0H.237a.055.055,0,0,0-.037.01A.041.041,0,0,0,.188-2.3Z" transform="translate(-0.188 2.344)" fill="#fff"/>
    </g>
    <g id="Grupo_2077" data-name="Grupo 2077" transform="translate(10.539 23.866)">
      <path id="Caminho_697" data-name="Caminho 697" d="M.411-3.074A.016.016,0,0,1,.4-3.081.036.036,0,0,1,.391-3.1.036.036,0,0,1,.4-3.123.016.016,0,0,1,.411-3.13a.018.018,0,0,1,.016.007A.035.035,0,0,1,.432-3.1a.034.034,0,0,1-.005.021A.018.018,0,0,1,.411-3.074Zm.021-.062a.043.043,0,0,0-.014-.012.039.039,0,0,0-.018,0,.035.035,0,0,0-.029.014A.054.054,0,0,0,.359-3.1a.056.056,0,0,0,.012.037A.036.036,0,0,0,.4-3.051a.039.039,0,0,0,.018,0,.041.041,0,0,0,.014-.012v.014h.03v-.134H.432Z" transform="translate(-0.359 3.188)" fill="#fff"/>
    </g>
    <g id="Grupo_2078" data-name="Grupo 2078" transform="translate(10.426 23.901)">
      <path id="Caminho_698" data-name="Caminho 698" d="M.235-2.289a.027.027,0,0,1,.014,0,.011.011,0,0,1,0,.01.011.011,0,0,1,0,.009.015.015,0,0,1-.01,0,.02.02,0,0,1-.014-.006.022.022,0,0,1-.007-.016v0ZM.188-2.3v.055H.218V-2.26a.04.04,0,0,0,.014.013.038.038,0,0,0,.018,0,.034.034,0,0,0,.024-.009.031.031,0,0,0,.009-.023A.028.028,0,0,0,.273-2.3a.067.067,0,0,0-.037-.008H.218v0A.012.012,0,0,1,.224-2.32a.04.04,0,0,1,.018,0l.018,0,.016.006v-.024l-.02,0H.237a.055.055,0,0,0-.037.01A.041.041,0,0,0,.188-2.3Z" transform="translate(-0.188 2.344)" fill="#fff"/>
    </g>
    <g id="Grupo_2079" data-name="Grupo 2079" transform="translate(13.099 24.041)">
      <path id="Caminho_699" data-name="Caminho 699" d="M.078-3.188v.02H.1a.013.013,0,0,1,.009,0,.009.009,0,0,1,0,.008v.007H.081v.022H.107v.074H.138v-.074H.153V-3.15H.138v-.007A.028.028,0,0,0,.129-3.18.041.041,0,0,0,.1-3.188Z" transform="translate(-0.078 3.188)" fill="#fff"/>
    </g>
    <g id="Grupo_2080" data-name="Grupo 2080" transform="translate(13.014 24.077)">
      <path id="Caminho_700" data-name="Caminho 700" d="M.359-2.316l.008,0H.375a.022.022,0,0,1,.018.008A.03.03,0,0,1,.4-2.29v.045H.43v-.1H.4v.016a.035.035,0,0,0-.014-.014.037.037,0,0,0-.018,0H.359Z" transform="translate(-0.359 2.344)" fill="#fff"/>
    </g>
    <g id="Grupo_2081" data-name="Grupo 2081" transform="translate(12.9 24.077)">
      <path id="Caminho_701" data-name="Caminho 701" d="M.241-2.322a.019.019,0,0,1,.016.008.035.035,0,0,1,.005.021.034.034,0,0,1-.005.021.019.019,0,0,1-.016.007.018.018,0,0,1-.016-.007A.036.036,0,0,1,.22-2.293a.036.036,0,0,1,.005-.021A.018.018,0,0,1,.241-2.322Zm0-.022A.052.052,0,0,0,.2-2.33a.048.048,0,0,0-.014.037A.05.05,0,0,0,.2-2.256a.053.053,0,0,0,.039.013.053.053,0,0,0,.039-.013.05.05,0,0,0,.014-.037A.048.048,0,0,0,.279-2.33.052.052,0,0,0,.241-2.344Z" transform="translate(-0.188 2.344)" fill="#fff"/>
    </g>
    <g id="Grupo_2082" data-name="Grupo 2082" transform="translate(12.724 24.077)">
      <path id="Caminho_702" data-name="Caminho 702" d="M.409-2.325A.042.042,0,0,0,.4-2.339a.037.037,0,0,0-.018,0,.031.031,0,0,0-.026.01A.045.045,0,0,0,.344-2.3v.058H.375V-2.3a.027.027,0,0,1,0-.015.01.01,0,0,1,.009,0A.015.015,0,0,1,.4-2.314a.039.039,0,0,1,0,.021v.047H.436V-2.3a.043.043,0,0,1,0-.021.011.011,0,0,1,.01,0,.016.016,0,0,1,.014.007.039.039,0,0,1,0,.021v.047H.5v-.1H.468v.014A.039.039,0,0,0,.454-2.34a.033.033,0,0,0-.016,0,.029.029,0,0,0-.017.005.03.03,0,0,0-.012.013Z" transform="translate(-0.344 2.344)" fill="#fff"/>
    </g>
    <g id="Grupo_2083" data-name="Grupo 2083" transform="translate(12.569 24.052)">
      <path id="Caminho_703" data-name="Caminho 703" d="M.094-2.938v.027H.062v.022H.094v.041a.012.012,0,0,1,0,.009.019.019,0,0,1-.01,0H.065v.022H.091a.038.038,0,0,0,.026-.007.038.038,0,0,0,.007-.026v-.041H.14v-.022H.125v-.027Z" transform="translate(-0.062 2.938)" fill="#fff"/>
    </g>
    <g id="Grupo_2084" data-name="Grupo 2084" transform="translate(12.453 24.041)">
      <path id="Caminho_704" data-name="Caminho 704" d="M.359-3.112v.058H.39V-3.1c0-.008,0-.014,0-.017a.021.021,0,0,1,0-.007l.005,0,.007,0a.019.019,0,0,1,.016.008.034.034,0,0,1,.005.02v.047h.03v-.134H.425v.052A.05.05,0,0,0,.41-3.148a.037.037,0,0,0-.017,0,.031.031,0,0,0-.026.01.045.045,0,0,0-.009.029Z" transform="translate(-0.359 3.188)" fill="#fff"/>
    </g>
    <g id="Grupo_2085" data-name="Grupo 2085" transform="translate(12.329 24.077)">
      <path id="Caminho_705" data-name="Caminho 705" d="M.187-2.294v.009H.259a.025.025,0,0,1-.008.016.029.029,0,0,1-.019.005l-.02,0L.192-2.275v.024l.022.006.022,0a.057.057,0,0,0,.04-.013A.049.049,0,0,0,.29-2.293.048.048,0,0,0,.277-2.33a.054.054,0,0,0-.039-.014A.049.049,0,0,0,.2-2.33a.049.049,0,0,0-.014.036ZM.219-2.3a.02.02,0,0,1,.005-.014.018.018,0,0,1,.013-.005.022.022,0,0,1,.015.005A.022.022,0,0,1,.259-2.3Z" transform="translate(-0.187 2.344)" fill="#fff"/>
    </g>
    <g id="Grupo_2086" data-name="Grupo 2086" transform="translate(12.128 24.047)">
      <path id="Caminho_706" data-name="Caminho 706" d="M.505-3.047H.469l-.046.088v-.088H.391v.128H.428l.046-.088v.088H.505Z" transform="translate(-0.391 3.047)" fill="#fff"/>
    </g>
    <g id="Grupo_2087" data-name="Grupo 2087" transform="translate(11.999 24.077)">
      <path id="Caminho_707" data-name="Caminho 707" d="M.241-2.322a.019.019,0,0,1,.016.008.035.035,0,0,1,.005.021.034.034,0,0,1-.005.021.019.019,0,0,1-.016.007.018.018,0,0,1-.016-.007A.036.036,0,0,1,.22-2.293a.036.036,0,0,1,.005-.021A.018.018,0,0,1,.241-2.322Zm0-.022A.052.052,0,0,0,.2-2.33a.048.048,0,0,0-.014.037A.05.05,0,0,0,.2-2.256a.053.053,0,0,0,.039.013.053.053,0,0,0,.039-.013.05.05,0,0,0,.014-.037A.048.048,0,0,0,.279-2.33.052.052,0,0,0,.241-2.344Z" transform="translate(-0.188 2.344)" fill="#fff"/>
    </g>
    <g id="Grupo_2088" data-name="Grupo 2088" transform="translate(11.881 24.079)">
      <path id="Caminho_708" data-name="Caminho 708" d="M.424-2.238V-2.3H.394v.045a.141.141,0,0,1,0,.017.018.018,0,0,1,0,.007l0,0H.379a.017.017,0,0,1-.015-.007.034.034,0,0,1-.005-.02V-2.3H.328v.1H.359v-.014A.042.042,0,0,0,.373-2.2a.038.038,0,0,0,.017,0,.033.033,0,0,0,.026-.01.046.046,0,0,0,.009-.03Z" transform="translate(-0.328 2.297)" fill="#fff"/>
    </g>
    <g id="Grupo_2089" data-name="Grupo 2089" transform="translate(11.755 24.077)">
      <path id="Caminho_709" data-name="Caminho 709" d="M.359-2.3v.058H.39V-2.29c0-.008,0-.014,0-.017a.021.021,0,0,1,0-.007l.005,0,.007,0a.019.019,0,0,1,.016.008.034.034,0,0,1,.005.02v.047h.03v-.1H.425v.014A.05.05,0,0,0,.41-2.34a.037.037,0,0,0-.017,0,.031.031,0,0,0-.026.01A.045.045,0,0,0,.359-2.3Z" transform="translate(-0.359 2.344)" fill="#fff"/>
    </g>
    <g id="Grupo_2090" data-name="Grupo 2090" transform="translate(11.559 24.047)">
      <path id="Caminho_710" data-name="Caminho 710" d="M.5-3.047H.441A.055.055,0,0,0,.4-3.036a.037.037,0,0,0-.013.03A.039.039,0,0,0,.4-2.974a.057.057,0,0,0,.037.01H.463v.045H.5Zm-.033.024v.036H.444a.02.02,0,0,1-.014,0,.019.019,0,0,1-.005-.014A.017.017,0,0,1,.43-3.019a.02.02,0,0,1,.014,0Z" transform="translate(-0.391 3.047)" fill="#fff"/>
    </g>
    <g id="Grupo_2091" data-name="Grupo 2091" transform="translate(11.465 24.077)">
      <path id="Caminho_711" data-name="Caminho 711" d="M.359-2.316l.008,0H.375a.022.022,0,0,1,.018.008A.03.03,0,0,1,.4-2.29v.045H.43v-.1H.4v.016a.035.035,0,0,0-.014-.014.037.037,0,0,0-.018,0H.359Z" transform="translate(-0.359 2.344)" fill="#fff"/>
    </g>
    <g id="Grupo_2092" data-name="Grupo 2092" transform="translate(11.351 24.077)">
      <path id="Caminho_712" data-name="Caminho 712" d="M.241-2.322a.019.019,0,0,1,.016.008.035.035,0,0,1,.005.021.034.034,0,0,1-.005.021.019.019,0,0,1-.016.007.018.018,0,0,1-.016-.007A.036.036,0,0,1,.22-2.293a.036.036,0,0,1,.005-.021A.018.018,0,0,1,.241-2.322Zm0-.022A.052.052,0,0,0,.2-2.33a.048.048,0,0,0-.014.037A.05.05,0,0,0,.2-2.256a.053.053,0,0,0,.039.013.053.053,0,0,0,.039-.013.05.05,0,0,0,.014-.037A.048.048,0,0,0,.279-2.33.052.052,0,0,0,.241-2.344Z" transform="translate(-0.188 2.344)" fill="#fff"/>
    </g>
    <g id="Grupo_2093" data-name="Grupo 2093" transform="translate(11.299 24.041)">
      <path id="Caminho_713" data-name="Caminho 713" d="M-.11-3.15h-.03v.094a.042.042,0,0,0,.009.029.034.034,0,0,0,.027.01H-.09v-.02H-.095a.016.016,0,0,1-.012,0,.027.027,0,0,1,0-.016Zm0-.037h-.03v.026h.03Z" transform="translate(0.141 3.188)" fill="#fff"/>
    </g>
    <g id="Grupo_2094" data-name="Grupo 2094" transform="translate(11.173 24.077)">
      <path id="Caminho_714" data-name="Caminho 714" d="M.187-2.294v.009H.259a.025.025,0,0,1-.008.016.029.029,0,0,1-.019.005l-.02,0L.192-2.275v.024l.022.006.022,0a.057.057,0,0,0,.04-.013A.049.049,0,0,0,.29-2.293.048.048,0,0,0,.277-2.33a.054.054,0,0,0-.039-.014A.049.049,0,0,0,.2-2.33a.049.049,0,0,0-.014.036ZM.219-2.3a.02.02,0,0,1,.005-.014.018.018,0,0,1,.013-.005.022.022,0,0,1,.015.005A.022.022,0,0,1,.259-2.3Z" transform="translate(-0.187 2.344)" fill="#fff"/>
    </g>
    <g id="Grupo_2095" data-name="Grupo 2095" transform="translate(11.072 24.077)">
      <path id="Caminho_715" data-name="Caminho 715" d="M.187-2.339v.025L.2-2.32l.012,0a.026.026,0,0,1,.02.008.028.028,0,0,1,.007.021.029.029,0,0,1-.007.021.027.027,0,0,1-.02.007l-.014,0a.032.032,0,0,1-.012-.007v.026l.015,0H.217a.057.057,0,0,0,.041-.013.049.049,0,0,0,.014-.037A.047.047,0,0,0,.258-2.33a.056.056,0,0,0-.041-.014H.2l-.015,0Z" transform="translate(-0.187 2.344)" fill="#fff"/>
    </g>
    <g id="Grupo_2096" data-name="Grupo 2096" transform="translate(10.98 24.052)">
      <path id="Caminho_716" data-name="Caminho 716" d="M.094-2.938v.027H.062v.022H.094v.041a.012.012,0,0,1,0,.009.019.019,0,0,1-.01,0H.065v.022H.091a.038.038,0,0,0,.026-.007.038.038,0,0,0,.007-.026v-.041H.14v-.022H.125v-.027Z" transform="translate(-0.062 2.938)" fill="#fff"/>
    </g>
  </g>
</svg>
